<mxfile host="Electron" agent="Mozilla/5.0 (X11; Linux x86_64) AppleWebKit/537.36 (KHTML, like Gecko) draw.io/24.7.8 Chrome/128.0.6613.36 Electron/32.0.1 Safari/537.36" version="24.7.8">
  <diagram name="Page-1" id="dLwdvKDTPcIO3N5fkgTV">
    <mxGraphModel dx="1382" dy="870" grid="1" gridSize="10" guides="1" tooltips="1" connect="1" arrows="1" fold="1" page="1" pageScale="1" pageWidth="850" pageHeight="1100" math="0" shadow="0">
      <root>
        <mxCell id="0" />
        <mxCell id="1" parent="0" />
        <mxCell id="dQcLL6dTIm6I2sdsBGXJ-9" style="edgeStyle=orthogonalEdgeStyle;rounded=0;orthogonalLoop=1;jettySize=auto;html=1;exitX=1;exitY=0.5;exitDx=0;exitDy=0;entryX=0;entryY=0.5;entryDx=0;entryDy=0;fillColor=#fad7ac;strokeColor=#b46504;" edge="1" parent="1" source="dQcLL6dTIm6I2sdsBGXJ-1" target="dQcLL6dTIm6I2sdsBGXJ-2">
          <mxGeometry relative="1" as="geometry" />
        </mxCell>
        <mxCell id="dQcLL6dTIm6I2sdsBGXJ-1" value="Start" style="ellipse;whiteSpace=wrap;html=1;aspect=fixed;fillColor=#fad7ac;strokeColor=#b46504;" vertex="1" parent="1">
          <mxGeometry x="50" y="240" width="80" height="80" as="geometry" />
        </mxCell>
        <mxCell id="dQcLL6dTIm6I2sdsBGXJ-10" style="edgeStyle=orthogonalEdgeStyle;rounded=0;orthogonalLoop=1;jettySize=auto;html=1;exitX=1;exitY=0.5;exitDx=0;exitDy=0;entryX=0;entryY=0.5;entryDx=0;entryDy=0;fillColor=#fad7ac;strokeColor=#b46504;" edge="1" parent="1" source="dQcLL6dTIm6I2sdsBGXJ-2" target="dQcLL6dTIm6I2sdsBGXJ-3">
          <mxGeometry relative="1" as="geometry" />
        </mxCell>
        <mxCell id="dQcLL6dTIm6I2sdsBGXJ-2" value="Background mesh" style="rounded=0;whiteSpace=wrap;html=1;fillColor=#fad7ac;strokeColor=#b46504;" vertex="1" parent="1">
          <mxGeometry x="200" y="250" width="120" height="60" as="geometry" />
        </mxCell>
        <mxCell id="dQcLL6dTIm6I2sdsBGXJ-11" style="edgeStyle=orthogonalEdgeStyle;rounded=0;orthogonalLoop=1;jettySize=auto;html=1;exitX=1;exitY=0.5;exitDx=0;exitDy=0;entryX=0;entryY=0.5;entryDx=0;entryDy=0;fillColor=#fad7ac;strokeColor=#b46504;" edge="1" parent="1" source="dQcLL6dTIm6I2sdsBGXJ-3" target="dQcLL6dTIm6I2sdsBGXJ-4">
          <mxGeometry relative="1" as="geometry" />
        </mxCell>
        <mxCell id="dQcLL6dTIm6I2sdsBGXJ-3" value="Configuring&lt;br&gt;snappyHexMesh" style="rounded=0;whiteSpace=wrap;html=1;fillColor=#fad7ac;strokeColor=#b46504;" vertex="1" parent="1">
          <mxGeometry x="390" y="250" width="120" height="60" as="geometry" />
        </mxCell>
        <mxCell id="dQcLL6dTIm6I2sdsBGXJ-12" style="edgeStyle=orthogonalEdgeStyle;rounded=0;orthogonalLoop=1;jettySize=auto;html=1;exitX=1;exitY=0.5;exitDx=0;exitDy=0;entryX=0.5;entryY=0;entryDx=0;entryDy=0;fillColor=#fad7ac;strokeColor=#b46504;" edge="1" parent="1" source="dQcLL6dTIm6I2sdsBGXJ-4" target="dQcLL6dTIm6I2sdsBGXJ-5">
          <mxGeometry relative="1" as="geometry">
            <Array as="points">
              <mxPoint x="730" y="280" />
              <mxPoint x="730" y="400" />
              <mxPoint x="260" y="400" />
            </Array>
          </mxGeometry>
        </mxCell>
        <mxCell id="dQcLL6dTIm6I2sdsBGXJ-4" value="Domain decomposition" style="rounded=0;whiteSpace=wrap;html=1;fillColor=#fad7ac;strokeColor=#b46504;" vertex="1" parent="1">
          <mxGeometry x="580" y="250" width="120" height="60" as="geometry" />
        </mxCell>
        <mxCell id="dQcLL6dTIm6I2sdsBGXJ-13" style="edgeStyle=orthogonalEdgeStyle;rounded=0;orthogonalLoop=1;jettySize=auto;html=1;exitX=1;exitY=0.5;exitDx=0;exitDy=0;entryX=0;entryY=0.5;entryDx=0;entryDy=0;fillColor=#fad7ac;strokeColor=#b46504;" edge="1" parent="1" source="dQcLL6dTIm6I2sdsBGXJ-5" target="dQcLL6dTIm6I2sdsBGXJ-6">
          <mxGeometry relative="1" as="geometry" />
        </mxCell>
        <mxCell id="dQcLL6dTIm6I2sdsBGXJ-5" value="Generating the&lt;br&gt;&lt;div&gt;mesh&lt;/div&gt;" style="rounded=0;whiteSpace=wrap;html=1;fillColor=#fad7ac;strokeColor=#b46504;" vertex="1" parent="1">
          <mxGeometry x="200" y="430" width="120" height="60" as="geometry" />
        </mxCell>
        <mxCell id="dQcLL6dTIm6I2sdsBGXJ-14" style="edgeStyle=orthogonalEdgeStyle;rounded=0;orthogonalLoop=1;jettySize=auto;html=1;exitX=1;exitY=0.5;exitDx=0;exitDy=0;entryX=0;entryY=0.5;entryDx=0;entryDy=0;fillColor=#fad7ac;strokeColor=#b46504;" edge="1" parent="1" source="dQcLL6dTIm6I2sdsBGXJ-6" target="dQcLL6dTIm6I2sdsBGXJ-7">
          <mxGeometry relative="1" as="geometry" />
        </mxCell>
        <mxCell id="dQcLL6dTIm6I2sdsBGXJ-6" value="Reconstructing the mesh" style="rounded=0;whiteSpace=wrap;html=1;fillColor=#fad7ac;strokeColor=#b46504;" vertex="1" parent="1">
          <mxGeometry x="390" y="430" width="120" height="60" as="geometry" />
        </mxCell>
        <mxCell id="dQcLL6dTIm6I2sdsBGXJ-15" style="edgeStyle=orthogonalEdgeStyle;rounded=0;orthogonalLoop=1;jettySize=auto;html=1;exitX=1;exitY=0.5;exitDx=0;exitDy=0;entryX=0;entryY=0.5;entryDx=0;entryDy=0;fillColor=#fad7ac;strokeColor=#b46504;" edge="1" parent="1" source="dQcLL6dTIm6I2sdsBGXJ-7" target="dQcLL6dTIm6I2sdsBGXJ-8">
          <mxGeometry relative="1" as="geometry" />
        </mxCell>
        <mxCell id="dQcLL6dTIm6I2sdsBGXJ-7" value="Checking the mesh" style="rounded=0;whiteSpace=wrap;html=1;fillColor=#fad7ac;strokeColor=#b46504;" vertex="1" parent="1">
          <mxGeometry x="580" y="430" width="120" height="60" as="geometry" />
        </mxCell>
        <mxCell id="dQcLL6dTIm6I2sdsBGXJ-8" value="Next step" style="ellipse;whiteSpace=wrap;html=1;aspect=fixed;fillColor=#fad7ac;strokeColor=#b46504;" vertex="1" parent="1">
          <mxGeometry x="780" y="420" width="80" height="80" as="geometry" />
        </mxCell>
        <mxCell id="dQcLL6dTIm6I2sdsBGXJ-16" value="blockMeshDict&lt;br&gt;blockMesh" style="text;html=1;align=left;verticalAlign=top;whiteSpace=wrap;rounded=0;" vertex="1" parent="1">
          <mxGeometry x="200" y="320" width="100" height="40" as="geometry" />
        </mxCell>
        <mxCell id="dQcLL6dTIm6I2sdsBGXJ-17" value="snappyHexMeshDixt" style="text;html=1;align=left;verticalAlign=top;whiteSpace=wrap;rounded=0;" vertex="1" parent="1">
          <mxGeometry x="390" y="320" width="120" height="40" as="geometry" />
        </mxCell>
        <mxCell id="dQcLL6dTIm6I2sdsBGXJ-18" value="decomposeParDict&lt;br&gt;decomposePar" style="text;html=1;align=left;verticalAlign=top;whiteSpace=wrap;rounded=0;" vertex="1" parent="1">
          <mxGeometry x="580" y="320" width="120" height="40" as="geometry" />
        </mxCell>
        <mxCell id="dQcLL6dTIm6I2sdsBGXJ-19" value="mpirun snappyHexMesh" style="text;html=1;align=left;verticalAlign=top;whiteSpace=wrap;rounded=0;" vertex="1" parent="1">
          <mxGeometry x="200" y="500" width="140" height="40" as="geometry" />
        </mxCell>
        <mxCell id="dQcLL6dTIm6I2sdsBGXJ-20" value="reconstructParMesh" style="text;html=1;align=left;verticalAlign=top;whiteSpace=wrap;rounded=0;" vertex="1" parent="1">
          <mxGeometry x="390" y="500" width="140" height="40" as="geometry" />
        </mxCell>
        <mxCell id="dQcLL6dTIm6I2sdsBGXJ-21" value="checkMesh" style="text;html=1;align=left;verticalAlign=top;whiteSpace=wrap;rounded=0;" vertex="1" parent="1">
          <mxGeometry x="580" y="500" width="140" height="40" as="geometry" />
        </mxCell>
        <mxCell id="dQcLL6dTIm6I2sdsBGXJ-22" value="Fluid simulation" style="text;html=1;align=center;verticalAlign=top;whiteSpace=wrap;rounded=0;" vertex="1" parent="1">
          <mxGeometry x="750" y="510" width="140" height="40" as="geometry" />
        </mxCell>
      </root>
    </mxGraphModel>
  </diagram>
</mxfile>
